<?xml version="1.0" encoding="iso-8859-1"?>
<!-- Generator: Adobe Illustrator 19.0.0, SVG Export Plug-In . SVG Version: 6.00 Build 0)  -->
<svg version="1.1" id="Capa_1" xmlns="http://www.w3.org/2000/svg" xmlns:xlink="http://www.w3.org/1999/xlink" x="0px" y="0px"
	 viewBox="0 0 512.003 512.003" style="enable-background:new 0 0 512.003 512.003;" xml:space="preserve">
<rect x="434.144" y="23.463" transform="matrix(-0.7071 0.7071 -0.7071 -0.7071 835.5702 -269.1784)" style="fill:#A8D3D8;" width="78.779" height="30"/>
<rect x="439.458" y="36.257" transform="matrix(-0.7071 0.7071 -0.7071 -0.7071 848.385 -263.8977)" style="fill:#8EBAC5;" width="78.779" height="15"/>
<polygon style="fill:#00CCB2;" points="250.721,155.213 91.63,102.183 148.705,45.097 127.492,23.884 0.223,151.174 
	127.492,278.442 210.453,237.907 "/>
<polygon style="fill:#00AB94;" points="466.903,363.295 409.82,420.378 356.787,261.279 282.613,293.026 233.558,384.508 
	360.837,511.788 488.116,384.508 "/>
<path style="fill:#5A5A5A;" d="M460.538,66.31l0.214-15.062l-15.062,0.214c-58.761-0.212-113.915,22.697-155.493,64.275
	L127.492,278.442l106.066,106.066l162.705-162.705C437.841,180.225,460.75,125.071,460.538,66.31z"/>
<path style="fill:#444444;" d="M396.262,221.804L233.558,384.508l-53.033-53.033L460.751,51.249l-0.214,15.062
	C460.75,125.071,437.841,180.225,396.262,221.804z"/>
<rect x="315.834" y="136.155" transform="matrix(-0.7071 0.7071 -0.7071 -0.7071 722.8634 2.8898)" style="fill:#00DDC1;" width="89.999" height="30"/>
<rect x="146.126" y="305.869" transform="matrix(-0.7071 0.7071 -0.7071 -0.7071 553.1595 412.6112)" style="fill:#A8D3D8;" width="89.999" height="30"/>
<path style="fill:#DEECF1;" d="M180.525,267.836l-63.653,63.653l-63.64-63.64l63.653-63.653c17.607-17.607,46.032-17.607,63.64,0
	S198.132,250.229,180.525,267.836z"/>
<path style="fill:#A8D3D8;" d="M180.525,267.836l-63.653,63.653l-31.82-31.82l95.473-95.473
	C198.132,221.804,198.132,250.229,180.525,267.836z"/>
<path style="fill:#FDBF00;" d="M95.672,289.049c-17.607-17.607-46.032-17.607-63.64,0c-4.031,4.031-7.425,9.122-10.394,16.335
	L0,384.721l81.247-22.274c5.303-2.333,10.394-5.728,14.425-9.759C113.279,335.081,113.279,306.656,95.672,289.049z"/>
<path style="fill:#FF9F00;" d="M95.672,352.689c-4.031,4.031-9.122,7.425-14.425,9.759L0,384.721l95.672-95.672
	C113.279,306.656,113.279,335.081,95.672,352.689z"/>
<path style="fill:#DEECF1;" d="M307.804,395.115l-63.653,63.653l-63.64-63.64l63.653-63.653c17.607-17.607,46.032-17.607,63.64,0
	C325.411,349.083,325.411,377.508,307.804,395.115z"/>
<path style="fill:#A8D3D8;" d="M307.804,395.115l-63.653,63.653l-31.82-31.82l95.473-95.473
	C325.411,349.083,325.411,377.508,307.804,395.115z"/>
<path style="fill:#FDBF00;" d="M222.951,416.328c-17.607-17.607-46.032-17.607-63.64,0c-4.031,4.031-7.425,9.122-10.394,16.335
	L127.279,512l81.247-22.274c5.303-2.333,10.394-5.728,14.425-9.759C240.558,462.361,240.558,433.936,222.951,416.328z"/>
<path style="fill:#FF9F00;" d="M222.951,479.968c-4.031,4.031-9.122,7.425-14.425,9.759L127.279,512l95.672-95.672
	C240.558,433.936,240.558,462.361,222.951,479.968z"/>
<rect x="358.642" y="111.472" transform="matrix(0.7071 0.7071 -0.7071 0.7071 217.883 -213.0722)" style="fill:#00CCB2;" width="15" height="89.999"/>
<rect x="188.939" y="281.18" transform="matrix(0.7071 0.7071 -0.7071 0.7071 288.1792 -43.3678)" style="fill:#8EBAC5;" width="15" height="89.999"/>
<g>
</g>
<g>
</g>
<g>
</g>
<g>
</g>
<g>
</g>
<g>
</g>
<g>
</g>
<g>
</g>
<g>
</g>
<g>
</g>
<g>
</g>
<g>
</g>
<g>
</g>
<g>
</g>
<g>
</g>
</svg>
